0
SECTION
2
HEADER
9
$INSUNITS
70
4
9
$ACADVER
1
AC1014
9
$HANDSEED
5
FFFF
0
ENDSEC
0
SECTION
2
TABLES
0
TABLE
2
VPORT
5
8
100
AcDbSymbolTable
0
ENDTAB
0
TABLE
2
LTYPE
5
5
100
AcDbSymbolTable
0
LTYPE
5
14
100
AcDbSymbolTableRecord
100
AcDbLinetypeTableRecord
2
BYBLOCK
70
0
0
LTYPE
5
15
100
AcDbSymbolTableRecord
100
AcDbLinetypeTableRecord
2
BYLAYER
70
0
0
LTYPE
5
16
100
AcDbSymbolTableRecord
100
AcDbLinetypeTableRecord
2
DASHED
70
0
3
Dashed __ __ __ __ __ __ __ __ __ __ __ __ __ _
72
65
73
2
40
0.75
49
0.5
74
0
49
-0.25
74
0
0
ENDTAB
0
TABLE
2
LAYER
5
2
100
AcDbSymbolTable
70
2
0
LAYER
5
50
100
AcDbSymbolTableRecord
100
AcDbLayerTableRecord
2
0
70
0
62
7
6
CONTINUOUS
0
ENDTAB
0
TABLE
2
STYLE
5
3
100
AcDbSymbolTable
70
1
0
STYLE
5
11
100
AcDbSymbolTableRecord
100
AcDbTextStyleTableRecord
2
STANDARD
70
0
0
ENDTAB
0
TABLE
2
VIEW
5
6
100
AcDbSymbolTable
70
0
0
ENDTAB
0
TABLE
2
UCS
5
7
100
AcDbSymbolTable
70
0
0
ENDTAB
0
TABLE
2
APPID
5
9
100
AcDbSymbolTable
70
2
0
APPID
5
12
100
AcDbSymbolTableRecord
100
AcDbRegAppTableRecord
2
ACAD
70
0
0
ENDTAB
0
TABLE
2
DIMSTYLE
5
A
100
AcDbSymbolTable
70
1
0
ENDTAB
0
TABLE
2
BLOCK_RECORD
5
1
100
AcDbSymbolTable
70
1
0
BLOCK_RECORD
5
1F
100
AcDbSymbolTableRecord
100
AcDbBlockTableRecord
2
*MODEL_SPACE
0
BLOCK_RECORD
5
1B
100
AcDbSymbolTableRecord
100
AcDbBlockTableRecord
2
*PAPER_SPACE
0
ENDTAB
0
ENDSEC
0
SECTION
2
BLOCKS
0
BLOCK
5
20
100
AcDbEntity
100
AcDbBlockBegin
2
*MODEL_SPACE
0
ENDBLK
5
21
100
AcDbEntity
100
AcDbBlockEnd
0
BLOCK
5
1C
100
AcDbEntity
100
AcDbBlockBegin
2
*PAPER_SPACE
0
ENDBLK
5
1D
100
AcDbEntity
100
AcDbBlockEnd
0
ENDSEC
0
SECTION
2
ENTITIES
0
POINT
5
100
100
AcDbEntity
8
0
100
AcDbPoint
10
0
20
1100
30
0
0
SPLINE
5
101
100
AcDbEntity
8
0
100
AcDbSpline
70
4
71
5
72
46
73
40
74
0
42
0.000000001
43
0.0000000001
44
0.0000000001
40
0
40
0
40
0
40
0
40
0
40
0
40
0.028571428571428571
40
0.057142857142857141
40
0.085714285714285715
40
0.11428571428571428
40
0.14285714285714285
40
0.17142857142857143
40
0.20000000000000001
40
0.22857142857142859
40
0.25714285714285717
40
0.28571428571428575
40
0.31428571428571433
40
0.34285714285714292
40
0.3714285714285715
40
0.40000000000000008
40
0.42857142857142866
40
0.45714285714285724
40
0.48571428571428582
40
0.51428571428571435
40
0.54285714285714293
40
0.57142857142857151
40
0.60000000000000009
40
0.62857142857142867
40
0.65714285714285725
40
0.68571428571428583
40
0.71428571428571441
40
0.74285714285714299
40
0.77142857142857157
40
0.80000000000000016
40
0.82857142857142874
40
0.85714285714285732
40
0.8857142857142859
40
0.91428571428571448
40
0.94285714285714306
40
0.97142857142857164
40
1
40
1
40
1
40
1
40
1
40
1
41
1
41
1
41
1
41
1
41
1
41
1
41
1
41
1
41
1
41
1
41
1
41
1
41
1
41
1
41
1
41
1
41
1
41
1
41
1
41
1
41
1
41
1
41
1
41
1
41
1
41
1
41
1
41
1
41
1
41
1
41
1
41
1
41
1
41
1
41
1
41
1
41
1
41
1
41
1
41
1
10
42
20
1100
30
0
10
42.045441780351858
20
1095.9161576896486
30
0
10
42.389590437645225
20
1087.802852518586
30
0
10
43.665176312150635
20
1075.7965342101447
30
0
10
46.80441644594633
20
1060.0177460523496
30
0
10
52.783448802703113
20
1039.9412872605055
30
0
10
60.70414582535215
20
1018.1485419975546
30
0
10
70.722997332367086
20
992.89084521589962
30
0
10
83.020305981176307
20
962.57851054593982
30
0
10
97.60648867462865
20
926.31397341305683
30
0
10
114.18197614422965
20
884.22456939240305
30
0
10
132.25422106525485
20
837.11212965642414
30
0
10
151.2022724472653
20
786.23770123623808
30
0
10
170.36296114967516
20
733.05089905230329
30
0
10
189.10353339426814
20
678.95678207729566
30
0
10
206.90926997442762
20
625.03853017905533
30
0
10
223.43610561661967
20
571.88861155193911
30
0
10
238.46773959736123
20
519.73821607509512
30
0
10
251.89047593810525
20
468.53181714680227
30
0
10
263.66190203388862
20
418.02116488981062
30
0
10
273.782704989698
20
367.85056235174443
30
0
10
282.26794384986533
20
317.64284257024468
30
0
10
289.11808212180853
20
267.09033107851673
30
0
10
294.29456394911716
20
216.01220725625549
30
0
10
297.69648370423999
20
164.40043511793249
30
0
10
299.13819673241579
20
112.46702693139778
30
0
10
298.32315524889782
20
60.6993159503184
30
0
10
294.82631319828221
20
9.896267393543825
30
0
10
288.0544803410076
20
-38.743554789661331
30
0
10
277.28205534585982
20
-83.709191870972646
30
0
10
261.77660650742945
20
-123.47334765559887
30
0
10
240.90588408641099
20
-156.74497678094309
30
0
10
214.24440138536184
20
-182.71970255885051
30
0
10
181.70295647906087
20
-201.38488806274577
30
0
10
143.58434785884583
20
-213.64718384370218
30
0
10
100.39499748427373
20
-220.87474091921595
30
0
10
62.239044560581021
20
-223.80925406884489
30
0
10
31.802849510396637
20
-224.94336900368992
30
0
10
10.731108818788634
20
-225.29542869036277
30
0
10
0
20
-225.37044850315482
30
0
0
LINE
5
102
100
AcDbEntity
8
0
100
AcDbLine
10
0
20
1100
30
0
11
42
21
1100
31
0
0
LINE
5
103
100
AcDbEntity
8
0
100
AcDbLine
10
0
20
2.5
30
0
11
0
21
20
31
0
0
SPLINE
5
104
100
AcDbEntity
8
0
100
AcDbSpline
70
4
71
5
72
46
73
40
74
0
42
0.000000001
43
0.0000000001
44
0.0000000001
40
0
40
0
40
0
40
0
40
0
40
0
40
0.028571428571428571
40
0.057142857142857141
40
0.085714285714285715
40
0.11428571428571428
40
0.14285714285714285
40
0.17142857142857143
40
0.20000000000000001
40
0.22857142857142859
40
0.25714285714285717
40
0.28571428571428575
40
0.31428571428571433
40
0.34285714285714292
40
0.3714285714285715
40
0.40000000000000008
40
0.42857142857142866
40
0.45714285714285724
40
0.48571428571428582
40
0.51428571428571435
40
0.54285714285714293
40
0.57142857142857151
40
0.60000000000000009
40
0.62857142857142867
40
0.65714285714285725
40
0.68571428571428583
40
0.71428571428571441
40
0.74285714285714299
40
0.77142857142857157
40
0.80000000000000016
40
0.82857142857142874
40
0.85714285714285732
40
0.8857142857142859
40
0.91428571428571448
40
0.94285714285714306
40
0.97142857142857164
40
1
40
1
40
1
40
1
40
1
40
1
41
1
41
1
41
1
41
1
41
1
41
1
41
1
41
1
41
1
41
1
41
1
41
1
41
1
41
1
41
1
41
1
41
1
41
1
41
1
41
1
41
1
41
1
41
1
41
1
41
1
41
1
41
1
41
1
41
1
41
1
41
1
41
1
41
1
41
1
41
1
41
1
41
1
41
1
41
1
41
1
10
-42
20
1100
30
0
10
-42.045441780351858
20
1095.9161576896486
30
0
10
-42.389590437645225
20
1087.802852518586
30
0
10
-43.665176312150635
20
1075.7965342101447
30
0
10
-46.80441644594633
20
1060.0177460523496
30
0
10
-52.783448802703113
20
1039.9412872605055
30
0
10
-60.70414582535215
20
1018.1485419975546
30
0
10
-70.722997332367086
20
992.89084521589962
30
0
10
-83.020305981176307
20
962.57851054593982
30
0
10
-97.60648867462865
20
926.31397341305683
30
0
10
-114.18197614422965
20
884.22456939240305
30
0
10
-132.25422106525485
20
837.11212965642414
30
0
10
-151.2022724472653
20
786.23770123623808
30
0
10
-170.36296114967516
20
733.05089905230329
30
0
10
-189.10353339426814
20
678.95678207729566
30
0
10
-206.90926997442762
20
625.03853017905533
30
0
10
-223.43610561661967
20
571.88861155193911
30
0
10
-238.46773959736123
20
519.73821607509512
30
0
10
-251.89047593810525
20
468.53181714680227
30
0
10
-263.66190203388862
20
418.02116488981062
30
0
10
-273.782704989698
20
367.85056235174443
30
0
10
-282.26794384986533
20
317.64284257024468
30
0
10
-289.11808212180853
20
267.09033107851673
30
0
10
-294.29456394911716
20
216.01220725625549
30
0
10
-297.69648370423999
20
164.40043511793249
30
0
10
-299.13819673241579
20
112.46702693139778
30
0
10
-298.32315524889782
20
60.6993159503184
30
0
10
-294.82631319828221
20
9.896267393543825
30
0
10
-288.0544803410076
20
-38.743554789661331
30
0
10
-277.28205534585982
20
-83.709191870972646
30
0
10
-261.77660650742945
20
-123.47334765559887
30
0
10
-240.90588408641099
20
-156.74497678094309
30
0
10
-214.24440138536184
20
-182.71970255885051
30
0
10
-181.70295647906087
20
-201.38488806274577
30
0
10
-143.58434785884583
20
-213.64718384370218
30
0
10
-100.39499748427373
20
-220.87474091921595
30
0
10
-62.239044560581021
20
-223.80925406884489
30
0
10
-31.802849510396637
20
-224.94336900368992
30
0
10
-10.731108818788634
20
-225.29542869036277
30
0
10
0
20
-225.37044850315482
30
0
0
LINE
5
105
100
AcDbEntity
8
0
100
AcDbLine
10
0
20
1100
30
0
11
-42
21
1100
31
0
0
ENDSEC
0
SECTION
2
OBJECTS
0
DICTIONARY
5
C
100
AcDbDictionary
3
ACAD_GROUP
350
D
3
ACAD_MLINESTYLE
350
17
0
DICTIONARY
5
D
100
AcDbDictionary
0
DICTIONARY
5
1A
330
C
100
AcDbDictionary
0
DICTIONARY
5
17
100
AcDbDictionary
0
ENDSEC
0
EOF
